{"title":"[GR HARDSUBBED] Ring.0.Birthday.2000.DVDRip.x264-GRRiPS","uid":8663469,"size":729377218,"categoryP":"video","categoryS":"movies_dvdr","magnet":"?xt=urn:btih:d0ef26a9b98b7c7855a71a807ad9358b1ee2018f&amp;dn=%5BGR+HARDSUBBED%5D+Ring.0.Birthday.2000.DVDRip.x264-GRRiPS&amp;tr=udp%3A%2F%2Ftracker.openbittorrent.com%3A80&amp;tr=udp%3A%2F%2Fopen.demonii.com%3A1337&amp;tr=udp%3A%2F%2Ftracker.coppersurfer.tk%3A6969&amp;tr=udp%3A%2F%2Fexodus.desync.com%3A6969","seeders":1,"leechers":0,"uploader":"GRRiPS","files":-1,"time":1373358311,"description":"----------------------------------------------------------------------------\n** PLEASE BE ADVICED: DO NOT DOWNLOAD THIS IF YOU CAN'T SPEAK/READ GREEK **\n----------------------------------------------------------------------------\n\n------------------------------------------------------\n** The movie contain GREEK -HARDSUBBED- subtitles! **\n------------------------------------------------------\n\nGeneral\nComplete name                            : Ring.0.Birthday.2000.DVDRip.x264-GRRiPS.mp4\nFormat                                   : MPEG-4\nFormat profile                           : Base Media\nCodec ID                                 : isom\nFile size                                : 696 MiB\nDuration                                 : 1h 38mn\nOverall bit rate mode                    : Variable\nOverall bit rate                         : 985 Kbps\n\nVideo\nID                                       : 1\nFormat                                   : AVC\nFormat/Info                              : Advanced Video Codec\nFormat profile                           : &lt;a class=&quot;__cf_email__&quot; href=&quot;/cdn-cgi/l/email-protection&quot; data-cfemail=&quot;e5ad8c828da5a9d1cbd5&quot;&gt;[email&amp;#160;protected]&lt;/a&gt;&lt;script cf-hash='f9e31' type=&quot;text/javascript&quot;&gt;\n/* &lt;![CDATA[ */!function(){try{var t=&quot;currentScript&quot;in document?document.currentScript:function(){for(var t=document.getElementsByTagName(&quot;script&quot;),e=t.length;e--;)if(t[e].getAttribute(&quot;cf-hash&quot;))return t[e]}();if(t&amp;&amp;t.previousSibling){var e,r,n,i,c=t.previousSibling,a=c.getAttribute(&quot;data-cfemail&quot;);if(a){for(e=&quot;&quot;,r=parseInt(a.substr(0,2),16),n=2;a.length-n;n+=2)i=parseInt(a.substr(n,2),16)^r,e+=String.fromCharCode(i);e=document.createTextNode(e),c.parentNode.replaceChild(e,c)}}}catch(u){}}();/* ]]&gt; */&lt;/script&gt;\nFormat settings, CABAC                   : Yes\nFormat settings, ReFrames                : 3 frames\nCodec ID                                 : avc1\nCodec ID/Info                            : Advanced Video Coding\nDuration                                 : 1h 38mn\nBit rate mode                            : Variable\nBit rate                                 : 662 Kbps\nMaximum bit rate                         : 25.0 Mbps\nWidth                                    : 704 pixels\nHeight                                   : 572 pixels\nDisplay aspect ratio                     : 5:4\nFrame rate mode                          : Constant\nFrame rate                               : 25.000 fps\nColor space                              : YUV\nChroma subsampling                       : 4:2:0\nBit depth                                : 8 bits\nScan type                                : Progressive\nBits/(Pixel*Frame)                       : 0.066\nStream size                              : 467 MiB (67%)\nTitle                                    : TheRingBirthday\nWriting library                          : x264 core 129 r2245 bc13772\n\nAudio\nID                                       : 2\nFormat                                   : AAC\nFormat/Info                              : Advanced Audio Codec\nFormat profile                           : LC\nCodec ID                                 : 40\nDuration                                 : 1h 38mn\nBit rate mode                            : Variable\nBit rate                                 : 320 Kbps\nMaximum bit rate                         : 332 Kbps\nChannel(s)                               : 6 channels\nChannel positions                        : Front: L C R, Side: L R, LFE\nSampling rate                            : 48.0 KHz\nCompression mode                         : Lossy\nStream size                              : 226 MiB (32%)\n\nDIKO MOU RIP.\n\nFULL SCREENSHOTS: &lt;a href=&quot;\nhttp://bayimg.com/NANJiAaeK&quot; rel=&quot;nofollow&quot; target=&quot;_NEW&quot;&gt;\nhttp://bayimg.com/NANJiAaeK&lt;/a&gt;\n\nKALH PROBOLH KAI S E E D ! ! ! !\n\n-------------------------------------------------------\n|PERISSOTERA/MORE: https://thepiratebay.se/user/GRRiPS|\n-------------------------------------------------------\t\n\n//////////////////////////////////////////////////////\n/         SUNTOMA KAI SE DIKO MAS BLOG! ;)           /\n//////////////////////////////////////////////////////","torrent":{"xt":"urn:btih:d0ef26a9b98b7c7855a71a807ad9358b1ee2018f","amp;dn":"%5BGR+HARDSUBBED%5D+Ring.0.Birthday.2000.DVDRip.x264-GRRiPS","amp;tr":["udp%3A%2F%2Ftracker.openbittorrent.com%3A80","udp%3A%2F%2Fopen.demonii.com%3A1337","udp%3A%2F%2Ftracker.coppersurfer.tk%3A6969","udp%3A%2F%2Fexodus.desync.com%3A6969"],"infoHash":"d0ef26a9b98b7c7855a71a807ad9358b1ee2018f","infoHashBuffer":{"type":"Buffer","data":[208,239,38,169,185,139,124,120,85,167,26,128,122,217,53,139,30,226,1,143]},"announce":[],"urlList":[]}}